# xmcd CD database file
#
# Track frame offsets:
#	151
#	15836
#	27417
#	39035
#	48188
#	62257
#	72753
#	85383
#	96532
#	110634
#	118238
#	128829
#	134585
#	150842
#	159678
#	167529
#	191868
#
# Disc length: 3646 seconds
#
# Revision: 0
# Processed by: cddbd v1.5.2PL0 Copyright (c) Steve Scherf et al.
# Submitted via: CDex 1.51
#
DISCID=da0e3c11
DTITLE=Philharmonia a Vent - Ghosts
DYEAR=2005
DGENRE=Wind Band
TTITLE0=Richard Rodney Bennett - Morning Music I. Prelude - Ships
TTITLE1=Richard Rodney Bennett - Morning Music II. Towers
TTITLE2=Richard Rodney Bennett - Morning Music III. Domes
TTITLE3=Richard Rodney Bennett - Morning Music IV. Theatres
TTITLE4=Richard Rodney Bennett - Morning Music V. Temples
TTITLE5=Richard Rodney Bennett - Morning Music VI. Finale
TTITLE6=Stephen McNeff - Ghosts I. The Haunting
TTITLE7=Stephen McNeff - Ghosts II. The Gray Lady
TTITLE8=Stephen McNeff - Ghosts III. The Dog of Godley
TTITLE9=Stephen McNeff - Ghosts IV. The Bank of England Clerk
TTITLE10=Stephen McNeff - Ghosts V. The Girl in the Tower
TTITLE11=Stephen McNeff - Ghosts VI. The Oldham Coliseum Ghost
TTITLE12=Stephen McNeff - Ghosts VII. The Blackpool Tram
TTITLE13=Stephen McNeff - Ghosts VIII. The Polish Sailor
TTITLE14=Stephen McNeff - Ghosts IX. Chorale
TTITLE15=Gustav Holst - Capriccio
TTITLE16=Christopher Marshall - L'Homme Arme Variations
EXTD=YEAR: 2005
EXTT0=
EXTT1=
EXTT2=
EXTT3=
EXTT4=
EXTT5=
EXTT6=
EXTT7=
EXTT8=
EXTT9=
EXTT10=
EXTT11=
EXTT12=
EXTT13=
EXTT14=
EXTT15=
EXTT16=
PLAYORDER=
